<svg width="33" height="32" viewBox="0 0 33 32" fill="none" xmlns="http://www.w3.org/2000/svg">
<g id="Group 6597">
<path id="Vector" d="M23.161 20.1258H21.7156L21.2033 19.6318C22.9963 17.546 24.0758 14.8382 24.0758 11.8925C24.0758 5.32419 18.7516 0 12.1833 0C5.61496 0 0.290771 5.32419 0.290771 11.8925C0.290771 18.4608 5.61496 23.785 12.1833 23.785C15.129 23.785 17.8368 22.7055 19.9226 20.9125L20.4166 21.4248V22.8702L29.5646 32L32.2908 29.2739L23.161 20.1258ZM12.1833 20.1258C7.62754 20.1258 3.95001 16.4483 3.95001 11.8925C3.95001 7.33676 7.62754 3.65923 12.1833 3.65923C16.739 3.65923 20.4166 7.33676 20.4166 11.8925C20.4166 16.4483 16.739 20.1258 12.1833 20.1258Z" fill="#028910"/>
</g>
</svg>
